<?xml version="1.0" encoding="UTF-8"?>
<svg version="1.1" xmlns="http://www.w3.org/2000/svg" width="500" height="500">
<path d="M0 0 C165 0 330 0 500 0 C500 165 500 330 500 500 C335 500 170 500 0 500 C0 335 0 170 0 0 Z " fill="#FEFEFE" transform="translate(0,0)"/>
<path d="M0 0 C3.51071409 0.02142609 7.01937746 0.00011463 10.5300293 -0.02539062 C37.59634059 -0.05849159 60.32075147 6.09902564 80.08276367 25.52148438 C80.70924805 26.13507812 81.33573242 26.74867187 81.98120117 27.38085938 C95.34774097 41.53366622 102.61190306 61.73221973 102.43823242 81.00097656 C102.09926384 92.11216743 99.75315942 102.69538526 95.75463867 113.06835938 C95.01980374 115.75136133 95.05902527 116.96487563 96.08276367 119.52148438 C97.41086582 121.19232256 98.74449063 122.85878151 100.08276367 124.52148438 C102.56320151 128.98627248 102.74114699 133.53777271 102.08276367 138.52148438 C100.18553139 144.76985417 96.39801515 148.87399803 91.08276367 152.52148438 C87.54463667 154.374789 85.02492598 154.5869688 81.08276367 154.52148438 C81.11756836 155.441875 81.15237305 156.36226562 81.18823242 157.31054688 C81.58543808 175.8846402 76.85367172 192.83818671 65.08276367 207.52148438 C64.09856445 208.76865234 64.09856445 208.76865234 63.09448242 210.04101562 C54.63773876 220.1056228 43.68646676 226.5917363 32.08276367 232.52148438 C33.06116211 232.94107422 33.06116211 232.94107422 34.05932617 233.36914062 C41.34511118 236.71114525 47.09871256 240.81720696 50.08276367 248.52148438 C50.34838867 251.79882813 50.34838867 251.79882813 50.33276367 255.45898438 C50.34049805 257.26689453 50.34049805 257.26689453 50.34838867 259.11132812 C50.09249732 262.39652152 49.36823581 264.5321553 48.08276367 267.52148438 C49.19200195 267.50053711 50.30124023 267.47958984 51.4440918 267.45800781 C55.58881546 267.3851997 59.73348344 267.33953742 63.87866211 267.30175781 C65.66717051 267.28173479 67.45561421 267.25450783 69.24389648 267.21972656 C71.82576529 267.17079482 74.40676317 267.14842273 76.98901367 267.13085938 C78.17388367 267.09989166 78.17388367 267.09989166 79.38269043 267.06829834 C85.95229729 267.06568735 91.10505283 268.95191536 96.10620117 273.26757812 C100.14503518 278.3219571 102.19242781 281.91970333 102.08276367 288.52148438 C103.1168335 288.49530029 104.15090332 288.46911621 105.21630859 288.44213867 C109.06455726 288.35142015 112.91271207 288.29415778 116.76171875 288.24682617 C118.42529206 288.22173091 120.08875563 288.18764641 121.75195312 288.14428711 C124.1476552 288.08340978 126.54189618 288.05522669 128.93823242 288.03320312 C130.04789619 287.99449348 130.04789619 287.99449348 131.17997742 287.95500183 C135.23984706 287.95281259 136.87121824 288.34429383 140.02929688 290.98950195 C140.70694092 291.82505615 141.38458496 292.66061035 142.08276367 293.52148438 C142.41276367 293.85148437 142.74276367 294.18148438 143.08276367 294.52148438 C143.2369574 297.28511046 143.31448285 300.00650993 143.33276367 302.77148438 C143.36370117 303.91810547 143.36370117 303.91810547 143.39526367 305.08789062 C143.42716881 309.70615878 143.16457212 312.82886705 140.08276367 316.52148438 C136.55032333 318.86270975 133.4296291 318.76825144 129.26177979 318.76199341 C128.57640884 318.76370226 127.8910379 318.76541111 127.18489814 318.76717174 C124.88935358 318.77046485 122.5941016 318.75946606 120.29858398 318.74853516 C118.65269477 318.747971 117.00680506 318.74828768 115.36091614 318.74942017 C110.89224323 318.74999452 106.42367747 318.73822683 101.95502949 318.72427225 C97.28519037 318.71177868 92.61534886 318.71059548 87.94549561 318.70822144 C79.10223807 318.70200263 70.25902992 318.68558638 61.41579413 318.66552246 C51.34818522 318.64317593 41.28057395 318.63217316 31.21294641 318.62213159 C10.5028518 318.60122051 -10.2071751 318.56453926 -30.91723633 318.52148438 C-30.91723633 307.30148437 -30.91723633 296.08148438 -30.91723633 284.52148438 C-34.21723633 286.50148438 -37.51723633 288.48148437 -40.91723633 290.52148438 C-42.83536133 291.20210938 -42.83536133 291.20210938 -44.79223633 291.89648438 C-48.62604236 293.89006351 -49.06034744 295.38875455 -50.70629883 299.20117188 C-56.66403502 310.61696317 -66.65681081 316.06846203 -78.37817383 319.82226562 C-80.91723633 320.52148438 -80.91723633 320.52148438 -82.91723633 320.52148438 C-82.91087158 319.94817383 -82.90450684 319.37486328 -82.89794922 318.78417969 C-82.79621717 303.45397843 -82.79621717 303.45397843 -89.22583008 289.89648438 C-93.87930226 283.36227863 -93.90374835 276.29128571 -92.91723633 268.52148438 C-91.56515902 265.14703646 -90.0100323 262.15355027 -88.13208008 259.04492188 C-86.72475306 256.67635641 -86.72475306 256.67635641 -87.10864258 254.46679688 C-88.00997744 252.29836807 -88.92561514 250.15055341 -89.91723633 248.02148438 C-93.29132957 240.7771077 -94.51928637 232.74797436 -92.12817383 224.94726562 C-90.67597561 221.68259101 -89.0121758 218.67240327 -87.10864258 215.64648438 C-85.55562614 212.55015169 -85.55562614 212.55015169 -86.90161133 209.45117188 C-87.48426758 208.443125 -88.06692383 207.43507812 -88.66723633 206.39648438 C-93.5975127 197.66856269 -94.37861964 189.09974094 -91.79223633 179.27148438 C-88.80593956 170.64287575 -82.83630464 165.28273041 -75.99145508 159.50195312 C-73.68719305 157.61096949 -73.68719305 157.61096949 -72.91723633 154.52148438 C-74.09286133 154.45960938 -75.26848633 154.39773437 -76.47973633 154.33398438 C-81.32493396 153.68339247 -84.55059608 152.08423959 -87.91723633 148.52148438 C-91.7648557 143.04154164 -93.75558961 137.63688089 -93.41723633 130.91210938 C-92.70936573 127.52760307 -91.22537995 125.08530748 -89.20629883 122.31054688 C-86.52651905 118.73276813 -86.52651905 118.73276813 -86.22509766 114.45019531 C-86.48057373 113.72606445 -86.7360498 113.00193359 -86.99926758 112.25585938 C-87.2719043 111.44761719 -87.54454102 110.639375 -87.82543945 109.80664062 C-88.12385742 108.97003906 -88.42227539 108.1334375 -88.72973633 107.27148438 C-95.81501722 86.98688246 -94.55482826 65.57750869 -85.69848633 45.99804688 C-77.51543135 30.02673344 -65.68670447 17.93579014 -49.91723633 9.52148438 C-49.02520508 9.04066406 -48.13317383 8.55984375 -47.21411133 8.06445312 C-31.94547476 0.49870656 -16.71792581 -0.12123731 0 0 Z " fill="#CD5E0F" transform="translate(183.917236328125,16.478515625)"/>
<path d="M0 0 C1.27009163 -0.01496269 1.27009163 -0.01496269 2.56584167 -0.03022766 C3.49162521 -0.03089233 4.41740875 -0.03155701 5.37124634 -0.03224182 C6.34876358 -0.04056534 7.32628082 -0.04888885 8.3334198 -0.0574646 C11.57214311 -0.0816047 14.8106652 -0.09034154 18.04946899 -0.09693909 C20.29764874 -0.10590214 22.54582786 -0.11502393 24.79400635 -0.1242981 C29.5100347 -0.14080141 34.22599194 -0.1484907 38.94204712 -0.15138245 C44.98732239 -0.15676849 51.03193016 -0.19445262 57.07701683 -0.24012661 C61.72156215 -0.26985744 66.36594594 -0.27710514 71.01057816 -0.2781086 C73.23934614 -0.28231855 75.46811428 -0.2947837 77.69678879 -0.31562614 C80.81403549 -0.34245803 83.92972468 -0.33773898 87.04702759 -0.32521057 C87.96876266 -0.34004486 88.89049774 -0.35487915 89.84016418 -0.37016296 C94.41245678 -0.31778857 96.22282994 -0.225551 99.88800049 2.74911499 C100.53167572 3.58237808 101.17535095 4.41564117 101.83853149 5.27415466 C102.33353149 5.76915466 102.33353149 5.76915466 102.83853149 6.27415466 C102.94086546 7.80397728 102.97372399 9.33850211 102.97897339 10.87173462 C102.98468353 11.86572266 102.99039368 12.85971069 102.99627686 13.88381958 C102.99795364 15.53339409 102.99795364 15.53339409 102.99966431 17.21629333 C103.00711166 18.94306808 103.00711166 18.94306808 103.01470947 20.70472717 C103.0293791 24.53386522 103.0361419 28.36296182 103.04165649 32.19212341 C103.04595313 34.17446327 103.05025026 36.15680313 103.05463099 38.13914281 C103.06645495 43.66704638 103.07398348 49.19493986 103.0774262 54.72285479 C103.08190169 61.87014222 103.09942156 69.0172379 103.12842679 76.16446704 C103.15006384 81.68810612 103.16013164 87.21169136 103.16146731 92.73537236 C103.16251443 96.03434188 103.16985009 99.33309059 103.18628693 102.63202477 C103.20333055 106.31651197 103.20147066 110.00053276 103.19497681 113.68504333 C103.20419159 114.77463852 103.21340637 115.8642337 103.22290039 116.98684692 C103.19248771 122.4919276 103.00975991 126.54758259 99.83853149 131.27415466 C96.40754031 134.02839071 92.28687167 133.50232748 88.08853149 133.39915466 C87.39114868 133.39013123 86.69376587 133.38110779 85.97525024 133.37181091 C84.26286192 133.34835354 82.55065145 133.31248571 80.83853149 133.27415466 C80.66837524 133.98958435 80.49821899 134.70501404 80.32290649 135.44212341 C78.69227878 142.14677885 76.7893085 148.65399864 74.51040649 155.16868591 C73.17534571 161.33946104 75.24165185 167.15702551 76.96353149 173.08665466 C77.41789605 174.68265646 77.87094085 176.27903437 78.32290649 177.87571716 C78.68932251 179.16977478 78.68932251 179.16977478 79.06314087 180.48997498 C80.18989971 184.53580552 81.26011659 188.59616897 82.33609009 192.65574646 C85.08786769 203.02353179 88.01559872 213.30753811 91.20205688 223.54978943 C93.87827823 232.22508761 96.23347351 240.9777829 98.52993774 249.76048279 C98.80321899 250.79882263 99.07650024 251.83716248 99.35806274 252.90696716 C99.59629761 253.82365173 99.83453247 254.7403363 100.07998657 255.68479919 C100.78302169 258.28973803 100.78302169 258.28973803 101.91226196 260.72093201 C103.76293114 265.82222306 103.16516876 271.40764812 103.15103149 276.77415466 C103.16714478 277.99747498 103.18325806 279.22079529 103.19985962 280.48118591 C103.20050415 281.6606781 103.20114868 282.84017029 103.20181274 284.05540466 C103.2047937 285.12854919 103.20777466 286.20169373 103.21084595 287.30735779 C102.78165067 290.72741095 101.93889346 292.55481676 99.83853149 295.27415466 C96.58098044 297.35999681 93.88904784 297.54983215 90.06362915 297.61228943 C88.90207306 297.63473221 87.74051697 297.65717499 86.54376221 297.68029785 C85.2926767 297.69193466 84.04159119 297.70357147 82.75259399 297.71556091 C81.46291718 297.72933273 80.17324036 297.74310455 78.84448242 297.7572937 C76.1159306 297.78277907 73.38748943 297.79848858 70.65884399 297.80955505 C67.17232845 297.82610867 63.68783943 297.88455047 60.20200539 297.95269871 C56.86476536 298.00837364 53.52776762 298.01472333 50.19009399 298.02806091 C48.94305695 298.0579158 47.6960199 298.08777069 46.41119385 298.11853027 C38.00226902 298.0758566 38.00226902 298.0758566 34.70507812 295.80441284 C30.8404087 291.53479764 29.94411378 287.87481501 30.21353149 282.21165466 C30.20386353 281.18975037 30.20386353 281.18975037 30.19400024 280.14720154 C30.30031228 275.11670919 31.69640492 272.14002949 34.83853149 268.27415466 C37.43180993 266.97751545 39.30261218 267.15411897 42.20620728 267.16062927 C43.32721832 267.1607048 44.44822937 267.16078033 45.60321045 267.16085815 C46.81781952 267.16601944 48.03242859 267.17118073 49.28384399 267.17649841 C51.14406693 267.17862083 51.14406693 267.17862083 53.04187012 267.18078613 C56.33971283 267.1854437 59.63750696 267.19443027 62.93533325 267.20549011 C66.30019536 267.21571735 69.66506457 267.22028657 73.02993774 267.22532654 C79.63282143 267.23637197 86.23567248 267.2531222 92.83853149 267.27415466 C92.37680542 266.23533142 91.91507935 265.19650818 91.43936157 264.12620544 C90.10531809 261.00931251 89.08116901 257.92730968 88.22525024 254.64134216 C87.94947144 253.5972821 87.67369263 252.55322205 87.38955688 251.4775238 C87.10459351 250.37916199 86.81963013 249.28080017 86.52603149 248.14915466 C84.01557578 238.6221068 81.41224222 229.13333256 78.61660767 219.68577576 C78.38175659 218.88091736 78.14690552 218.07605896 77.90493774 217.24681091 C77.69812378 216.5482196 77.49130981 215.8496283 77.27822876 215.12986755 C76.83853149 213.27415466 76.83853149 213.27415466 76.83853149 210.27415466 C70.23853149 210.27415466 63.63853149 210.27415466 56.83853149 210.27415466 C56.50853149 212.58415466 56.17853149 214.89415466 55.83853149 217.27415466 C54.85623986 221.17116486 53.64806821 224.99669991 52.46353149 228.83665466 C52.15931274 229.85179138 51.85509399 230.8669281 51.54165649 231.91282654 C47.25231045 245.94485387 47.25231045 245.94485387 40.83853149 250.27415466 C37.80331755 251.28589264 35.6412007 251.43988981 32.46353149 251.46165466 C31.52767212 251.47583435 30.59181274 251.49001404 29.62759399 251.50462341 C24.99955795 251.12219466 21.69172738 249.67707324 18.52603149 246.27415466 C15.68088235 242.64566575 14.96302493 239.94585364 15.25259399 235.36790466 C16.305319 229.80951666 18.24815452 224.55832142 20.13150024 219.23509216 C21.88622952 214.23941459 23.35426021 209.18560218 24.77603149 204.08665466 C27.67712969 193.75310116 30.78467782 183.48990201 33.93423462 173.22972107 C34.86176086 170.19823277 35.78100377 167.16434077 36.69790649 164.12962341 C44.78331783 137.38458198 44.78331783 137.38458198 46.83853149 133.27415466 C45.91891129 133.29080925 45.91891129 133.29080925 44.98071289 133.30780029 C38.58922928 133.41857477 32.19801915 133.49389704 25.80581665 133.54881287 C23.42158936 133.57392876 21.03743885 133.6080279 18.6534729 133.65135193 C15.22277871 133.71212913 11.79310405 133.7403946 8.36196899 133.76243591 C7.29924774 133.78824234 6.23652649 133.81404877 5.14160156 133.84063721 C-3.1376996 133.8437621 -3.1376996 133.8437621 -6.81918335 130.93113708 C-9.92556468 127.40739849 -10.28625437 124.99839607 -10.3019104 120.46730042 C-10.30762054 119.47753204 -10.31333069 118.48776367 -10.31921387 117.46800232 C-10.32089066 115.84088318 -10.32089066 115.84088318 -10.32260132 114.18089294 C-10.32756622 113.037565 -10.33253113 111.89423706 -10.33764648 110.71626282 C-10.35227822 106.9256582 -10.35907146 103.13509541 -10.36459351 99.34446716 C-10.37034366 96.71514382 -10.37610141 94.0858205 -10.38186646 91.45649719 C-10.39143645 86.64552033 -10.39733423 81.83455253 -10.40036321 77.02356732 C-10.40484431 69.94533995 -10.4223962 62.86730566 -10.4513638 55.78913701 C-10.47559234 49.65581399 -10.48330785 43.52257065 -10.48503876 37.38920212 C-10.48806965 34.78086673 -10.4961128 32.17253225 -10.50922394 29.56422806 C-10.52624518 25.91807095 -10.52441359 22.27238597 -10.51791382 18.62620544 C-10.5271286 17.54550781 -10.53634338 16.46481018 -10.5458374 15.35136414 C-10.49412047 6.10768774 -10.49412047 6.10768774 -7.16146851 2.27415466 C-4.09311871 0.22858814 -3.46017269 0.02187693 0 0 Z " fill="#C95B0D" transform="translate(306.1614685058594,37.72584533691406)"/>
<path d="M0 0 C1.68314049 -0.01441132 1.68314049 -0.01441132 3.40028381 -0.02911377 C4.60551193 -0.03336365 5.81074005 -0.03761353 7.05249023 -0.04199219 C8.30432602 -0.04769226 9.5561618 -0.05339233 10.84593201 -0.05926514 C13.49628322 -0.06870708 16.14652148 -0.07560749 18.796875 -0.07910156 C21.49395353 -0.08347586 24.1907103 -0.09733015 26.88769531 -0.12011719 C30.79689119 -0.15078694 34.70568698 -0.16117368 38.61499023 -0.16699219 C39.80604874 -0.17933899 40.99710724 -0.19168579 42.22425842 -0.20440674 C52.97353092 -0.17621168 62.79307985 1.81545012 72.36108398 6.78613281 C73.0359082 7.13240723 73.71073242 7.47868164 74.40600586 7.83544922 C87.63433508 14.86811235 96.83666029 24.86984923 103.61108398 38.09863281 C103.93681396 38.730354 104.26254395 39.3620752 104.59814453 40.01293945 C109.21425215 49.48166268 110.85828347 58.80355774 110.79858398 69.28613281 C110.79721436 70.36910645 110.79584473 71.45208008 110.79443359 72.56787109 C110.61468502 82.08538195 108.66362012 90.31274272 105.29858398 99.16113281 C104.96858398 100.15113281 104.63858398 101.14113281 104.29858398 102.16113281 C102.97858398 102.16113281 101.65858398 102.16113281 100.29858398 102.16113281 C100.28923828 101.40082764 100.27989258 100.64052246 100.27026367 99.85717773 C100.21600002 96.35371448 100.13246333 92.8515073 100.04858398 89.34863281 C100.0344043 88.15302734 100.02022461 86.95742187 100.00561523 85.72558594 C99.66080354 73.07099675 96.41478862 63.11248329 87.27514648 54.18457031 C84.10288977 51.31892577 81.20435874 48.9491097 77.29858398 47.16113281 C74.93948046 51.42486092 74.93948046 51.42486092 74.29858398 56.16113281 C75.87237876 57.53482549 75.87237876 57.53482549 77.92358398 58.78613281 C84.1360397 63.24720474 87.97798339 68.73473017 89.67358398 76.22363281 C89.87983398 77.52300781 90.08608398 78.82238281 90.29858398 80.16113281 C69.21145374 79.37576483 51.79254923 72.34131963 37.23608398 56.98535156 C29.29858398 48.20449219 29.29858398 48.20449219 29.29858398 44.16113281 C26.32858398 45.48113281 23.35858398 46.80113281 20.29858398 48.16113281 C23.68870689 55.78890935 28.38858136 62.25113019 34.29858398 68.16113281 C34.49389648 71.20019531 34.49389648 71.20019531 34.42358398 74.78613281 C34.40553711 75.97464844 34.38749023 77.16316406 34.36889648 78.38769531 C34.34569336 79.30292969 34.32249023 80.21816406 34.29858398 81.16113281 C14.77261072 79.59437807 0.31644477 74.01824724 -13.61938477 59.68066406 C-17.2957454 55.23178487 -20.02118 50.25444306 -22.70141602 45.16113281 C-25.67141602 45.82113281 -28.64141602 46.48113281 -31.70141602 47.16113281 C-30.76900097 49.08027834 -29.83027127 50.99635668 -28.88891602 52.91113281 C-28.10581055 54.51214844 -28.10581055 54.51214844 -27.30688477 56.14550781 C-25.83607798 59.13143438 -25.83607798 59.13143438 -23.93969727 61.36425781 C-23.53106445 61.95722656 -23.12243164 62.55019531 -22.70141602 63.16113281 C-23.03141602 64.15113281 -23.36141602 65.14113281 -23.70141602 66.16113281 C-26.3819791 67.3844174 -29.00825078 68.45182073 -31.76391602 69.47363281 C-43.32336143 73.93007181 -43.32336143 73.93007181 -51.13891602 83.16113281 C-53.4993938 89.22350527 -53.51838541 95.72760698 -53.70141602 102.16113281 C-54.69141602 102.16113281 -55.68141602 102.16113281 -56.70141602 102.16113281 C-64.6978578 80.70503139 -66.98994759 60.88844614 -57.33422852 39.23535156 C-47.5984564 20.90508205 -32.69918635 8.58563633 -13.10375977 1.85253906 C-8.68603983 0.58109772 -4.59853779 0.03193969 0 0 Z " fill="#FEFDFC" transform="translate(164.701416015625,27.8388671875)"/>
<path d="M0 0 C3.63 0 7.26 0 11 0 C11.05607422 2.07861328 11.05607422 2.07861328 11.11328125 4.19921875 C11.17895394 6.02867231 11.24540083 7.8580982 11.3125 9.6875 C11.33505859 10.59951172 11.35761719 11.51152344 11.38085938 12.45117188 C11.58248303 17.49176321 11.9201704 20.81374368 15 25 C15 25.66 15 26.32 15 27 C16.175625 27.4640625 16.175625 27.4640625 17.375 27.9375 C20 29 20 29 22 30 C23.54142175 30.11822971 25.08761097 30.17699811 26.63330078 30.20532227 C27.59414581 30.22526749 28.55499084 30.24521271 29.54495239 30.26576233 C31.10438065 30.29083107 31.10438065 30.29083107 32.6953125 30.31640625 C33.75789276 30.33718735 34.82047302 30.35796844 35.91525269 30.37937927 C39.31843438 30.44490261 42.72169489 30.50377273 46.125 30.5625 C48.42839366 30.60568257 50.73177926 30.64929677 53.03515625 30.69335938 C58.69002021 30.80058682 64.34496303 30.90234802 70 31 C69.40823065 33.05064648 68.80587131 35.09823836 68.19921875 37.14453125 C67.86494873 38.28510986 67.53067871 39.42568848 67.1862793 40.60083008 C61.49857293 56.89840896 47.25718101 69.30807998 32.16235352 76.71411133 C27.48678278 78.90406382 23.11128563 80.36342963 18 81 C17.21367187 81.10828125 16.42734375 81.2165625 15.6171875 81.328125 C13.07831679 81.63056101 10.55128414 81.83403144 8 82 C7.15824219 82.06574219 6.31648438 82.13148438 5.44921875 82.19921875 C-10.32298883 82.87683952 -26.80919231 76.24782504 -38.375 65.6875 C-49.06757907 55.46171599 -55.48601792 45.33609469 -59 31 C-58.42450409 30.99413376 -57.84900818 30.98826752 -57.256073 30.98222351 C-51.25340288 30.91817164 -45.25126305 30.83372168 -39.24902344 30.73754883 C-37.01048789 30.70434334 -34.77186951 30.67629784 -32.53320312 30.65356445 C-29.31083961 30.61993855 -26.08923226 30.56761728 -22.8671875 30.51171875 C-21.37153763 30.50213387 -21.37153763 30.50213387 -19.84567261 30.49235535 C-14.50028959 30.37985682 -10.59927341 30.03020064 -6 27 C-2.30788192 23.00852099 -0.93619051 19.92748366 -0.68359375 14.55078125 C-0.62075195 13.27944336 -0.62075195 13.27944336 -0.55664062 11.98242188 C-0.51732422 11.10134766 -0.47800781 10.22027344 -0.4375 9.3125 C-0.37272461 7.97348633 -0.37272461 7.97348633 -0.30664062 6.60742188 C-0.2006478 4.40512656 -0.09982779 2.20258338 0 0 Z " fill="#FEFDFC" transform="translate(183,161)"/>
<path d="M0 0 C1.57986694 0.01643555 1.57986694 0.01643555 3.19165039 0.03320312 C14.57505079 0.35060876 22.84754365 3.33624492 31.09765625 11.34765625 C40.64694248 22.11196101 43.96965118 35.66806762 43.38671875 49.79296875 C42.42506527 60.97363868 38.44790342 71.83367179 30.0625 79.5625 C24.29359702 84.10422083 19.04243893 85.31873766 11.7421875 84.984375 C8.13261199 84.41610364 6.36369301 83.40063805 4.0625 80.5625 C2.75 77.8125 2.75 77.8125 2.0625 75.5625 C1.670625 76.490625 1.27875 77.41875 0.875 78.375 C-1.18129873 81.99124949 -2.07690346 83.08397367 -5.9375 84.5625 C-10.23554839 85.2849224 -14.11853756 85.54819473 -18.03515625 83.42578125 C-22.94140301 79.45703387 -25.65350042 74.7368632 -26.9375 68.5625 C-28.11862948 55.87988012 -24.71345658 43.70505206 -16.9375 33.5625 C-11.85714035 28.1926896 -7.54450354 24.73426207 0 24.375 C2.42490966 24.43381311 4.59705566 24.6534882 7 25.0625 C11.04068706 25.72220401 14.98008749 25.62891045 19.0625 25.5625 C19.28366506 32.51849778 18.47832627 38.81154073 17.125 45.625 C15.47861478 54.12453644 13.90116063 62.3646358 14 71.0625 C14.00902344 72.1040625 14.01804687 73.145625 14.02734375 74.21875 C14.03894531 74.9921875 14.05054688 75.765625 14.0625 76.5625 C18.15507062 76.32176055 20.49314034 76.01269136 23.75 73.4375 C32.71335415 62.29387052 33.49972932 49.38376063 32.0625 35.5625 C29.76768239 26.44012586 25.33465597 19.46764256 17.5 14.1875 C11.99905628 11.3359904 7.01208656 11.01679764 0.9375 11 C-0.3146228 10.99637451 -0.3146228 10.99637451 -1.59204102 10.99267578 C-12.93263416 11.29431701 -21.28193948 15.48067302 -29.0625 23.625 C-37.87555443 34.48480205 -40.29469792 47.4565289 -40.25 61 C-40.26611328 61.97259766 -40.28222656 62.94519531 -40.29882812 63.94726562 C-40.30590348 74.53907441 -37.80558641 84.50201732 -30.26953125 92.28515625 C-22.63045033 99.14852476 -14.11000686 101.94506861 -3.875 101.8125 C-3.14418213 101.80863281 -2.41336426 101.80476563 -1.66040039 101.80078125 C5.35345202 101.69139159 12.15476387 100.78859579 19.0625 99.5625 C20.0525 104.0175 20.0525 104.0175 21.0625 108.5625 C19.37659158 109.04723678 17.68867455 109.52498926 16 110 C15.06027344 110.26683594 14.12054688 110.53367187 13.15234375 110.80859375 C-2.47159576 114.62075598 -18.17821641 113.67795155 -32.3125 105.75 C-41.28481853 99.89911914 -45.63581785 93.33783962 -49.9375 83.5625 C-50.30230469 82.76070313 -50.66710937 81.95890625 -51.04296875 81.1328125 C-53.28779824 74.68260374 -53.12018053 67.93475508 -53.125 61.1875 C-53.13724609 60.29289062 -53.14949219 59.39828125 -53.16210938 58.4765625 C-53.17500137 52.56343626 -52.46178243 47.26808353 -50.9375 41.5625 C-50.66550781 40.46164062 -50.39351562 39.36078125 -50.11328125 38.2265625 C-46.44089218 25.29842362 -39.4440294 13.76487024 -27.625 6.8125 C-18.4189031 2.24630085 -10.32803886 -0.15235782 0 0 Z " fill="#E86E16" transform="translate(249.9375,365.4375)"/>
<path d="M0 0 C17.16 0 34.32 0 52 0 C52.08021762 19.59538163 52.08021762 19.59538163 52.09765625 27.93554688 C52.10962094 33.63081581 52.12378903 39.32602055 52.15087891 45.02124023 C52.17257834 49.61183056 52.18456251 54.20235208 52.18975449 58.79298973 C52.19345546 60.54611482 52.20068236 62.29923606 52.21146011 64.05233192 C52.22593655 66.50412824 52.22797957 68.95563866 52.22705078 71.4074707 C52.23424133 72.13539322 52.24143188 72.86331573 52.24884033 73.61329651 C52.233662 77.3058022 52.10659383 78.84010925 50 82 C47.86129761 82.36076355 47.86129761 82.36076355 45.18310547 82.34057617 C44.16821045 82.34021362 43.15331543 82.33985107 42.10766602 82.33947754 C41.03830811 82.32412964 39.9689502 82.30878174 38.8671875 82.29296875 C37.8862915 82.28994751 36.90539551 82.28692627 35.89477539 82.28381348 C32.2214103 82.26808627 28.54819487 82.22620246 24.875 82.1875 C16.66625 82.125625 8.4575 82.06375 0 82 C0 54.94 0 27.88 0 0 Z " fill="#FCF8F6" transform="translate(306,79)"/>
<path d="M0 0 C0.99 0.33 1.98 0.66 3 1 C3.88671875 3.81640625 3.88671875 3.81640625 4.6875 7.5625 C9.43815357 27.32942255 21.04665927 43.06781248 38.19140625 54.04296875 C42.69417583 56.72253102 47.08929476 59.15178912 52 61 C48.05387966 68.36288308 43.91120198 72.19158599 36 75 C31.26156873 76.17353672 26.86009259 76.0725387 22 76 C22 79.63 22 83.26 22 87 C24.58361841 86.52233101 27.16689338 86.04292208 29.75 85.5625 C30.84441406 85.36043945 30.84441406 85.36043945 31.9609375 85.15429688 C35.33546675 84.52540733 38.67634694 83.85677827 42 83 C42.10883596 85.37625177 42.18766696 87.74743976 42.25 90.125 C42.28351563 90.79015625 42.31703125 91.4553125 42.3515625 92.140625 C42.45265085 97.29613093 41.19615097 100.02515043 38 104 C33.08658731 108.91341269 26.78917683 112.35973572 19.80859375 113.29296875 C17.75535683 113.85421395 17.75535683 113.85421395 16.98046875 116.22265625 C16.71878906 117.15980469 16.45710938 118.09695313 16.1875 119.0625 C13.88944305 126.06610213 10.12763431 130.91491046 4 135 C3.01 135 2.02 135 1 135 C0.86464844 134.20078125 0.72929688 133.4015625 0.58984375 132.578125 C-0.65223503 126.24129195 -2.18041956 121.27190255 -5.6875 115.8125 C-8.57017119 111.16717636 -9.96912191 107.82766689 -9.578125 102.3359375 C-8.58912097 98.33982664 -6.51365904 95.21389262 -4 92 C1.05255964 92.63156995 5.29593201 94.13459373 10 96 C10.66 93.03 11.32 90.06 12 87 C11.35933594 86.78085937 10.71867187 86.56171875 10.05859375 86.3359375 C2.24529511 83.47144947 -3.61434979 80.33380042 -7.4375 72.6875 C-9.54590374 67.2476358 -10.13259303 62.26518282 -8.19921875 56.69140625 C-7.24928026 54.63381747 -6.37488685 52.80252724 -5 51 C-1.01508155 49.67169385 0.40048548 50.76795596 4.1875 52.4375 C5.27417969 52.91058594 6.36085938 53.38367188 7.48046875 53.87109375 C8.31191406 54.24363281 9.14335938 54.61617187 10 55 C10.66 52.03 11.32 49.06 12 46 C11.20335938 45.6596875 10.40671875 45.319375 9.5859375 44.96875 C0.68366198 40.8966629 -3.27331331 36.99892559 -7.875 28.5625 C-10.22390279 21.12430785 -9.4662618 13.99600824 -6 7 C-4.17449001 4.47773047 -2.19318954 2.20738494 0 0 Z " fill="#FEFCFA" transform="translate(110,187)"/>
<path d="M0 0 C7.09168653 4.62501296 8.88606652 9.93892772 10.625 17.875 C10.83253906 18.7515625 11.04007813 19.628125 11.25390625 20.53125 C11.64876484 22.22277326 12.02850898 23.91791749 12.39086914 25.61669922 C12.79598574 27.50642616 13.25663995 29.38413333 13.73046875 31.2578125 C13.875 33.875 13.875 33.875 12.44140625 35.9921875 C11.78011719 36.57226562 11.11882812 37.15234375 10.4375 37.75 C9.77878906 38.34554687 9.12007812 38.94109375 8.44140625 39.5546875 C7.92449219 39.99039063 7.40757812 40.42609375 6.875 40.875 C8.525 42.855 10.175 44.835 11.875 46.875 C13.70968832 46.81936349 13.70968832 46.81936349 15.875 45.875 C16.51203857 44.87903809 17.14907715 43.88307617 17.80541992 42.85693359 C19.57153089 40.6881786 20.49394741 39.96036274 23.2538147 39.34210205 C26.28560387 39.18034181 29.26586343 39.20105239 32.30078125 39.2890625 C33.40350876 39.29755219 34.50623627 39.30604187 35.64237976 39.31478882 C39.15842091 39.34832905 42.67215411 39.42361599 46.1875 39.5 C48.57353455 39.5300985 50.95960511 39.5574745 53.34570312 39.58203125 C59.19040263 39.64301942 65.03012398 39.76043619 70.875 39.875 C70.875 50.105 70.875 60.335 70.875 70.875 C64.8642752 70.96755179 58.85608834 71.04696815 52.84521484 71.09472656 C50.8067175 71.11466454 48.768276 71.14182502 46.72998047 71.17675781 C30.31571814 71.45073175 16.79049399 70.53313132 2.875 60.875 C2.17890625 60.43542969 1.4828125 59.99585938 0.765625 59.54296875 C-5.32595935 55.44649633 -9.14620001 49.96273475 -13.125 43.875 C-13.62257812 43.13121094 -14.12015625 42.38742187 -14.6328125 41.62109375 C-20.55252833 31.9971246 -22.48346495 20.02058746 -21.125 8.875 C-19.10782942 4.27585108 -16.37844678 1.81038735 -11.984375 -0.43359375 C-7.68503591 -2.03229757 -4.21997918 -1.51919251 0 0 Z " fill="#FEFCFB" transform="translate(184.125,254.125)"/>
<path d="M0 0 C1.81640625 1.19921875 1.81640625 1.19921875 3.5625 2.6875 C15.50137249 12.04074097 28.85616862 15.18098041 43.625 16.6875 C44.81996094 16.81705078 46.01492187 16.94660156 47.24609375 17.08007812 C50.16316718 17.39512206 53.08147019 17.69874619 56 18 C56 13.05 56 8.1 56 3 C59.41403363 4.36561345 62.59135285 5.76897943 65.875 7.375 C77.25673355 12.56238527 89.770246 14.71017372 102 17 C102 20.96 102 24.92 102 29 C100.52200928 28.97905273 99.04401855 28.95810547 97.52124023 28.93652344 C92.02166486 28.86395541 86.52213157 28.8181386 81.0222168 28.78027344 C78.64486568 28.76019637 76.2675637 28.73292887 73.89038086 28.69824219 C70.46716155 28.64955386 67.04459694 28.62699147 63.62109375 28.609375 C62.0347538 28.57840729 62.0347538 28.57840729 60.41636658 28.54681396 C54.03129109 28.54488586 50.20065317 29.21403341 45 33 C40.93107306 37.47581964 41.34763851 43.22920071 41 49 C37.37 49 33.74 49 30 49 C29.8453125 46.4321875 29.8453125 46.4321875 29.6875 43.8125 C29.14645177 37.89978398 29.14645177 37.89978398 26 33 C19.86298503 28.53238164 14.82486024 28.46401892 7.37890625 28.609375 C6.27900864 28.61503479 5.17911102 28.62069458 4.04588318 28.62652588 C0.55096961 28.64882257 -2.94289903 28.69900851 -6.4375 28.75 C-8.81443826 28.77007358 -11.19139268 28.78832284 -13.56835938 28.8046875 C-19.37925962 28.84866538 -25.18955513 28.91551091 -31 29 C-31.85957283 13.98612782 -31.85957283 13.98612782 -29.15625 10.37109375 C-24.8670448 7.14888143 -20.44888668 5.08766339 -15.5 3.0625 C-14.56285156 2.65193359 -13.62570313 2.24136719 -12.66015625 1.81835938 C-4.90514165 -1.44314677 -4.90514165 -1.44314677 0 0 Z " fill="#FEFDFC" transform="translate(153,102)"/>
<path d="M0 0 C10.23 0 20.46 0 31 0 C31 27.06 31 54.12 31 82 C27.37 82 23.74 82 20 82 C17.0625 78.625 17.0625 78.625 16.09765625 76.7265625 C14.90510353 74.52349143 14.90510353 74.52349143 11 73 C7.37 72.67 3.74 72.34 0 72 C0 48.24 0 24.48 0 0 Z " fill="#FDFCFA" transform="translate(368,79)"/>
<path d="M0 0 C5.67058982 3.49624601 9.11331039 9.56203862 10.8125 15.875 C11.4375 19.5625 11.4375 19.5625 11.4375 23.5625 C7.27805256 24.86742469 3.78713091 25.68269705 -0.5625 25.5625 C-0.68367188 24.89863281 -0.80484375 24.23476563 -0.9296875 23.55078125 C-1.98768652 16.78564518 -1.98768652 16.78564518 -4.5625 10.5625 C-6.75764873 9.6031843 -6.75764873 9.6031843 -9.5625 9.5625 C-10.19929688 9.48902344 -10.83609375 9.41554688 -11.4921875 9.33984375 C-15.42623058 9.05035756 -17.16102249 9.30321244 -20.5625 11.5 C-23.28759284 15.67279841 -23.41935183 18.71540679 -22.5625 23.5625 C-19.42976561 31.76728055 -11.87760684 36.90188908 -5.34765625 42.44140625 C2.91928061 49.49695038 11.90749143 57.18624375 12.84765625 68.5625 C13.19244966 75.59133788 13.50931636 82.29621804 8.92578125 88.0546875 C8.43464844 88.55226563 7.94351563 89.04984375 7.4375 89.5625 C6.95667969 90.06007813 6.47585937 90.55765625 5.98046875 91.0703125 C0.00368109 96.5897734 -6.5950332 97.021484 -14.37109375 96.87109375 C-20.54165735 96.27442971 -24.57911081 93.88098295 -28.8125 89.4375 C-33.65310384 83.2743268 -36.2426005 76.38365571 -35.5625 68.5625 C-34.31586669 68.05416409 -33.06500613 67.55618855 -31.8125 67.0625 C-31.11640625 66.7840625 -30.4203125 66.505625 -29.703125 66.21875 C-27.5625 65.5625 -27.5625 65.5625 -23.5625 65.5625 C-23.45292969 66.20316406 -23.34335938 66.84382813 -23.23046875 67.50390625 C-22.24032838 72.90540371 -21.10654894 77.67792604 -18.5625 82.5625 C-14.29908351 85.40477766 -10.56259551 85.29499807 -5.5625 84.5625 C-2.20961687 82.95973654 -2.20961687 82.95973654 -0.5625 79.5625 C0.61037042 73.82543617 0.15278113 68.95590525 -2.9375 63.9375 C-6.83366144 58.7974936 -11.66846261 54.72135062 -16.5625 50.5625 C-34.85931192 34.61073402 -34.85931192 34.61073402 -35.8984375 24.1953125 C-35.98791363 16.16035599 -35.73555009 10.12237777 -30.171875 4.04296875 C-22.62197507 -2.85128198 -9.28649145 -3.93373622 0 0 Z " fill="#E86D14" transform="translate(173.5625,366.4375)"/>
<path d="M0 0 C0.89102417 -0.00945648 1.78204834 -0.01891296 2.70007324 -0.02865601 C3.65949829 -0.02258331 4.61892334 -0.01651062 5.60742188 -0.01025391 C6.59488403 -0.01312408 7.58234619 -0.01599426 8.59973145 -0.01895142 C10.68774997 -0.02099316 12.77578758 -0.01545565 14.86376953 -0.00292969 C18.06391071 0.01312209 21.26278884 -0.002775 24.46289062 -0.02197266 C26.49023717 -0.01999024 28.51758293 -0.01614661 30.54492188 -0.01025391 C31.98405945 -0.01936295 31.98405945 -0.01936295 33.45227051 -0.02865601 C34.78880676 -0.01447128 34.78880676 -0.01447128 36.15234375 0 C37.32790833 0.00358017 37.32790833 0.00358017 38.52722168 0.00723267 C41.13629538 0.49232452 42.01847049 1.26226026 43.57617188 3.38818359 C43.86220314 6.16428113 43.97282529 8.71127887 43.93945312 11.48583984 C43.94020088 12.67094398 43.94020088 12.67094398 43.94096375 13.87998962 C43.93862495 15.54851805 43.92890781 17.21705011 43.91235352 18.88549805 C43.88872753 21.44465523 43.89179779 24.00277296 43.8984375 26.56201172 C43.89286179 28.18246066 43.88575259 29.8029052 43.87695312 31.42333984 C43.87832024 32.57492332 43.87832024 32.57492332 43.87971497 33.74977112 C43.80721222 39.15714325 43.80721222 39.15714325 41.57617188 41.38818359 C39.56481934 41.64215088 39.56481934 41.64215088 37.06640625 41.64697266 C36.13203735 41.65327698 35.19766846 41.6595813 34.23498535 41.66607666 C33.2235144 41.6620282 32.21204346 41.65797974 31.16992188 41.65380859 C30.13428101 41.65572205 29.09864014 41.6576355 28.03161621 41.65960693 C25.83927162 41.66096956 23.64691899 41.65726773 21.45458984 41.64892578 C18.08998571 41.63822752 14.72591556 41.64881862 11.36132812 41.66162109 C9.23502486 41.66029951 7.10872192 41.65773715 4.98242188 41.65380859 C3.46521545 41.65988129 3.46521545 41.65988129 1.9173584 41.66607666 C0.9829895 41.65977234 0.04862061 41.65346802 -0.9140625 41.64697266 C-2.15077698 41.64458588 -2.15077698 41.64458588 -3.41247559 41.64215088 C-5.42382812 41.38818359 -5.42382812 41.38818359 -7.42382812 39.38818359 C-7.6358523 36.6985862 -7.72780426 34.11454637 -7.72460938 31.42333984 C-7.7288945 30.63422714 -7.73317963 29.84511444 -7.7375946 29.03208923 C-7.74334175 27.361816 -7.74383533 25.69151773 -7.73950195 24.02124023 C-7.73634467 21.46408388 -7.75978564 18.9080872 -7.78515625 16.35107422 C-7.78742946 14.72933089 -7.78813264 13.10758444 -7.78710938 11.48583984 C-7.79631912 10.72014175 -7.80552887 9.95444366 -7.8150177 9.1655426 C-7.76872782 3.85889661 -7.76872782 3.85889661 -6.17704773 1.68659973 C-3.96599391 0.04911636 -2.73521758 0.00833008 0 0 Z " fill="#FDFBFA" transform="translate(211.423828125,139.61181640625)"/>
<path d="M0 0 C0.89102417 -0.00945648 1.78204834 -0.01891296 2.70007324 -0.02865601 C3.65949829 -0.02258331 4.61892334 -0.01651062 5.60742188 -0.01025391 C6.59488403 -0.01312408 7.58234619 -0.01599426 8.59973145 -0.01895142 C10.68774997 -0.02099316 12.77578758 -0.01545565 14.86376953 -0.00292969 C18.06391071 0.01312209 21.26278884 -0.002775 24.46289062 -0.02197266 C26.49023717 -0.01999024 28.51758293 -0.01614661 30.54492188 -0.01025391 C31.98405945 -0.01936295 31.98405945 -0.01936295 33.45227051 -0.02865601 C34.78880676 -0.01447128 34.78880676 -0.01447128 36.15234375 0 C37.32790833 0.00358017 37.32790833 0.00358017 38.52722168 0.00723267 C41.13341112 0.49178826 42.01666943 1.26821915 43.57617188 3.38818359 C43.86225432 6.08204846 43.97292746 8.53978461 43.93945312 11.23193359 C43.94020088 12.38018616 43.94020088 12.38018616 43.94096375 13.55163574 C43.93862494 15.16889036 43.92890775 16.78614873 43.91235352 18.40332031 C43.88875869 20.87907451 43.89179393 23.35375176 43.8984375 25.82958984 C43.89286061 27.40121085 43.88575066 28.97282732 43.87695312 30.54443359 C43.87832024 31.65546448 43.87832024 31.65546448 43.87971497 32.78894043 C43.82815667 36.52554165 43.70169763 38.19989496 41.57617188 41.38818359 C39.56481934 41.7624054 39.56481934 41.7624054 37.06640625 41.76049805 C36.13203735 41.76672684 35.19766846 41.77295563 34.23498535 41.77937317 C33.2235144 41.77016342 32.21204346 41.76095367 31.16992188 41.75146484 C30.13428101 41.75196335 29.09864014 41.75246185 28.03161621 41.75297546 C25.8392546 41.75063214 23.64689044 41.7408885 21.45458984 41.72436523 C18.08992575 41.70078 14.7260538 41.70380151 11.36132812 41.71044922 C9.23502129 41.70487254 7.10871782 41.69776273 4.98242188 41.68896484 C3.46521545 41.69033195 3.46521545 41.69033195 1.9173584 41.69172668 C0.9829895 41.68219467 0.04862061 41.67266266 -0.9140625 41.6628418 C-2.15077698 41.65593071 -2.15077698 41.65593071 -3.41247559 41.64888 C-5.42382812 41.38818359 -5.42382812 41.38818359 -7.42382812 39.38818359 C-7.6358523 36.6985862 -7.72780426 34.11454637 -7.72460938 31.42333984 C-7.7288945 30.63422714 -7.73317963 29.84511444 -7.7375946 29.03208923 C-7.74334175 27.361816 -7.74383533 25.69151773 -7.73950195 24.02124023 C-7.73634467 21.46408388 -7.75978564 18.9080872 -7.78515625 16.35107422 C-7.78742946 14.72933089 -7.78813264 13.10758444 -7.78710938 11.48583984 C-7.79631912 10.72014175 -7.80552887 9.95444366 -7.8150177 9.1655426 C-7.76872782 3.85889661 -7.76872782 3.85889661 -6.17704773 1.68659973 C-3.96599391 0.04911636 -2.73521758 0.00833008 0 0 Z " fill="#FDFBFA" transform="translate(129.423828125,139.61181640625)"/>
<path d="M0 0 C30.69 0 61.38 0 93 0 C93 6.6 93 13.2 93 20 C76.17 20 59.34 20 42 20 C42 16.7 42 13.4 42 10 C38.37 10 34.74 10 31 10 C31 13.3 31 16.6 31 20 C27.7 20 24.4 20 21 20 C21 16.7 21 13.4 21 10 C17.7 10 14.4 10 11 10 C11 13.63 11 17.26 11 21 C7.37 21 3.74 21 0 21 C0 14.07 0 7.14 0 0 Z " fill="#FDFCFB" transform="translate(306,48)"/>
<path d="M0 0 C0.9075 0.00257813 1.815 0.00515625 2.75 0.0078125 C4.11125 0.00394531 4.11125 0.00394531 5.5 0 C7.75 0.1328125 7.75 0.1328125 8.75 1.1328125 C8.29007553 6.50053854 7.259224 11.33977086 5.6875 16.5078125 C5.47416016 17.21550781 5.26082031 17.92320312 5.04101562 18.65234375 C4.28546837 21.14838566 3.51855988 23.64074693 2.75 26.1328125 C2.44078613 27.13860352 2.13157227 28.14439453 1.81298828 29.18066406 C0.44434397 33.63194332 -0.92558951 38.08281444 -2.30029297 42.53222656 C-4.43140648 49.43691332 -6.51001149 56.35372723 -8.52954102 63.29174805 C-10.0547224 68.5146113 -11.66548869 73.70745748 -13.30322266 78.89599609 C-15.02761787 84.37562142 -16.67401525 89.8769689 -18.3125 95.3828125 C-24.61423875 116.49705125 -24.61423875 116.49705125 -26.25 118.1328125 C-28.24609375 118.30078125 -28.24609375 118.30078125 -30.6875 118.3203125 C-31.49058594 118.33449219 -32.29367187 118.34867187 -33.12109375 118.36328125 C-35.25 118.1328125 -35.25 118.1328125 -37.25 116.1328125 C-36.89998081 110.80913346 -35.79418241 106.14971194 -34.125 101.0703125 C-33.67078888 99.66441293 -33.21773346 98.25813965 -32.765625 96.8515625 C-32.52134766 96.09617187 -32.27707031 95.34078125 -32.02539062 94.5625 C-30.59475452 90.07959996 -29.23914087 85.57379927 -27.875 81.0703125 C-27.27350254 79.089824 -26.67193928 77.10935547 -26.0703125 75.12890625 C-25.76899414 74.13616699 -25.46767578 73.14342773 -25.15722656 72.12060547 C-23.3999458 66.33330675 -21.63778729 60.54749105 -19.87548828 54.76171875 C-18.41276269 49.95830085 -16.95316744 45.15397512 -15.5 40.34765625 C-12.50997026 30.46806495 -9.48218628 20.6012564 -6.375 10.7578125 C-6.07658203 9.80575928 -5.77816406 8.85370605 -5.47070312 7.87280273 C-5.19419922 7.00212158 -4.91769531 6.13144043 -4.6328125 5.234375 C-4.38934082 4.46432129 -4.14586914 3.69426758 -3.89501953 2.90087891 C-2.95882938 0.33468319 -2.79610332 0.16504777 0 0 Z " fill="#FDFAF8" transform="translate(369.25,160.8671875)"/>
<path d="M0 0 C0.69738281 0.01353516 1.39476562 0.02707031 2.11328125 0.04101562 C3.82585541 0.0762055 5.53802941 0.13000845 7.25 0.1875 C7.25 3.4875 7.25 6.7875 7.25 10.1875 C2.795 10.6825 2.795 10.6825 -1.75 11.1875 C-2.41 15.4775 -3.07 19.7675 -3.75 24.1875 C-0.12 24.1875 3.51 24.1875 7.25 24.1875 C7.25 27.1575 7.25 30.1275 7.25 33.1875 C3.62 33.1875 -0.01 33.1875 -3.75 33.1875 C-3.75 52.9875 -3.75 72.7875 -3.75 93.1875 C-8.04 93.1875 -12.33 93.1875 -16.75 93.1875 C-16.75 73.7175 -16.75 54.2475 -16.75 34.1875 C-19.39 34.1875 -22.03 34.1875 -24.75 34.1875 C-24.75 30.8875 -24.75 27.5875 -24.75 24.1875 C-21.78 24.1875 -18.81 24.1875 -15.75 24.1875 C-15.79640625 23.17429687 -15.8428125 22.16109375 -15.890625 21.1171875 C-15.92816758 19.76565468 -15.96456506 18.41408972 -16 17.0625 C-16.05027344 16.06476563 -16.05027344 16.06476563 -16.1015625 15.046875 C-16.22198019 8.9055729 -14.09495656 5.66215548 -9.984375 1.32421875 C-6.71728173 -0.33788639 -3.5707856 -0.13162631 0 0 Z " fill="#E86F18" transform="translate(358.75,368.8125)"/>
<path d="M0 0 C0.69738281 0.01353516 1.39476562 0.02707031 2.11328125 0.04101562 C3.82585541 0.0762055 5.53802941 0.13000845 7.25 0.1875 C7.25 3.4875 7.25 6.7875 7.25 10.1875 C2.795 10.6825 2.795 10.6825 -1.75 11.1875 C-2.41 15.4775 -3.07 19.7675 -3.75 24.1875 C-0.12 24.1875 3.51 24.1875 7.25 24.1875 C7.25 27.1575 7.25 30.1275 7.25 33.1875 C3.62 33.1875 -0.01 33.1875 -3.75 33.1875 C-3.75 52.9875 -3.75 72.7875 -3.75 93.1875 C-8.04 93.1875 -12.33 93.1875 -16.75 93.1875 C-16.75 73.7175 -16.75 54.2475 -16.75 34.1875 C-19.39 34.1875 -22.03 34.1875 -24.75 34.1875 C-24.75 30.8875 -24.75 27.5875 -24.75 24.1875 C-21.78 24.1875 -18.81 24.1875 -15.75 24.1875 C-15.79640625 23.17429687 -15.8428125 22.16109375 -15.890625 21.1171875 C-15.92816758 19.76565468 -15.96456506 18.41408972 -16 17.0625 C-16.05027344 16.06476563 -16.05027344 16.06476563 -16.1015625 15.046875 C-16.22198019 8.9055729 -14.09495656 5.66215548 -9.984375 1.32421875 C-6.71728173 -0.33788639 -3.5707856 -0.13162631 0 0 Z " fill="#E86F18" transform="translate(323.75,368.8125)"/>
<path d="M0 0 C-0.13792969 0.92941406 -0.27585937 1.85882813 -0.41796875 2.81640625 C-0.86704506 5.94421095 -1.24878654 9.07610779 -1.61328125 12.21484375 C-1.84629573 14.12240297 -2.07936991 16.0299549 -2.3125 17.9375 C-2.41755859 18.88818359 -2.52261719 19.83886719 -2.63085938 20.81835938 C-3.54260583 28.04756215 -5.14800188 35.13791005 -11 40 C-14.4375 40.5625 -14.4375 40.5625 -18 40 C-21.19619759 37.13161755 -21.82729255 35.32468398 -22.37890625 31.09375 C-22.73911533 21.33324592 -20.52693229 12.22312699 -14.4140625 4.44140625 C-10.14277595 0.08752576 -6.08435966 -1.78078819 0 0 Z " fill="#FEFAF7" transform="translate(257,400)"/>
<path d="M0 0 C2.97 0.99 5.94 1.98 9 3 C8.37804157 8.89359233 6.18105492 13.99219141 3.96484375 19.4296875 C3.56672989 20.42001984 3.16861603 21.41035217 2.75843811 22.43069458 C1.4904577 25.58111537 0.21410869 28.72806703 -1.0625 31.875 C-1.92568513 34.0154013 -2.78832162 36.15602393 -3.65039062 38.296875 C-5.76057675 43.53383138 -7.87763679 48.76796763 -10 54 C-13.75519057 53.48792856 -16.66688525 52.7824918 -20 51 C-18.09189343 44.27685454 -15.85931263 37.78666052 -13.2421875 31.30859375 C-12.8936673 30.4372731 -12.54514709 29.56595245 -12.18606567 28.66822815 C-11.45700006 26.84822158 -10.72584967 25.02904883 -9.99267578 23.21069336 C-8.86607745 20.41536124 -7.74703088 17.6170903 -6.62890625 14.81835938 C-5.91710499 13.04409492 -5.20488099 11.27 -4.4921875 9.49609375 C-4.15677948 8.65767441 -3.82137146 7.81925507 -3.47579956 6.95542908 C-1.11574162 1.11574162 -1.11574162 1.11574162 0 0 Z " fill="#D86412" transform="translate(286,221)"/>
<path d="M0 0 C17.16 0 34.32 0 52 0 C52 3.3 52 6.6 52 10 C34.84 10 17.68 10 0 10 C0 6.7 0 3.4 0 0 Z " fill="#FEFCFB" transform="translate(265,315)"/>
<path d="M0 0 C16.83 0 33.66 0 51 0 C51 3.3 51 6.6 51 10 C34.17 10 17.34 10 0 10 C0 6.7 0 3.4 0 0 Z " fill="#FEFEFD" transform="translate(348,315)"/>
<path d="M0 0 C1.17539996 0.92652701 2.34010577 1.86663387 3.5 2.8125 C4.1496875 3.33457031 4.799375 3.85664063 5.46875 4.39453125 C7 6 7 6 7 9 C5.03125 11.26171875 5.03125 11.26171875 2.5 13.6875 C1.6646875 14.49574219 0.829375 15.30398437 -0.03125 16.13671875 C-0.6809375 16.75160156 -1.330625 17.36648437 -2 18 C-0.2431893 22.06652629 2.36290539 24.33202078 5.63671875 27.21875 C7 29 7 29 7.08203125 30.90625 C6 33 6 33 0 38 C-5.94 32.06 -11.88 26.12 -18 20 C-16.23433463 16.46866927 -15.02506669 14.78657357 -12.3046875 12.109375 C-11.23154297 11.04589844 -11.23154297 11.04589844 -10.13671875 9.9609375 C-9.39035156 9.23132813 -8.64398438 8.50171875 -7.875 7.75 C-7.12089844 7.00492188 -6.36679688 6.25984375 -5.58984375 5.4921875 C-3.73099228 3.6568658 -1.86762995 1.8263809 0 0 Z " fill="#D86615" transform="translate(256,229)"/>
<path d="M0 0 C1.375 1.3984375 1.375 1.3984375 3 3.375 C6.74360377 7.83242652 10.88306245 11.75671061 15.15625 15.703125 C17 18 17 18 16.84008789 19.90039062 C15.79155486 22.52096141 14.42022527 23.92040998 12.40234375 25.890625 C11.68369141 26.59960938 10.96503906 27.30859375 10.22460938 28.0390625 C9.46986328 28.76867187 8.71511719 29.49828125 7.9375 30.25 C6.79958008 31.36761719 6.79958008 31.36761719 5.63867188 32.5078125 C3.76567793 34.34546694 1.88604389 36.17575724 0 38 C-3.32759923 36.44805246 -5.48580485 34.69378051 -8 32 C-6.52278578 28.54798361 -4.56205999 26.35038064 -1.875 23.75 C-1.15054687 23.04359375 -0.42609375 22.3371875 0.3203125 21.609375 C0.87460937 21.07828125 1.42890625 20.5471875 2 20 C0.52278578 16.54798361 -1.43794001 14.35038064 -4.125 11.75 C-4.84945313 11.04359375 -5.57390625 10.3371875 -6.3203125 9.609375 C-6.87460937 9.07828125 -7.42890625 8.5471875 -8 8 C-4.23529412 0 -4.23529412 0 0 0 Z " fill="#D86615" transform="translate(306,229)"/>
<path d="M0 0 C3.40312738 1.05875074 6.01353231 2.00902154 9 4 C7.63787302 9.14581303 4.34821832 12.17033884 0 15 C-4.52645883 16.80819294 -8.28985256 17.23683887 -13.1484375 17.1953125 C-13.80582916 17.1924826 -14.46322083 17.18965271 -15.14053345 17.18673706 C-17.21888233 17.17563447 -19.29678366 17.15054986 -21.375 17.125 C-22.79296248 17.11495731 -24.21093179 17.10583373 -25.62890625 17.09765625 C-29.08608037 17.07572805 -32.54299642 17.04126818 -36 17 C-36 13.7 -36 10.4 -36 7 C-35.18321777 6.98541748 -34.36643555 6.97083496 -33.52490234 6.95581055 C-29.8078024 6.88113077 -26.09158081 6.78453388 -22.375 6.6875 C-21.08980469 6.66494141 -19.80460937 6.64238281 -18.48046875 6.61914062 C-17.23652344 6.58369141 -15.99257812 6.54824219 -14.7109375 6.51171875 C-13.56931152 6.48553467 -12.42768555 6.45935059 -11.25146484 6.43237305 C-7.58195907 5.94440978 -5.14894605 4.92681855 -2 3 C-1.34 2.01 -0.68 1.02 0 0 Z " fill="#D1600F" transform="translate(209,205)"/>
<path d="M0 0 C8.0478003 0.51921292 15.79092576 1.71451923 21.625 7.6875 C23.39836928 11.95970781 23.83034959 15.44121792 23 20 C20.07317073 25.46341463 20.07317073 25.46341463 17 27 C15.29297265 27.06996014 13.58331997 27.08440154 11.875 27.0625 C10.96492187 27.05347656 10.05484375 27.04445313 9.1171875 27.03515625 C8.06917969 27.01775391 8.06917969 27.01775391 7 27 C6.20532858 24.18831904 5.41420767 21.37571498 4.625 18.5625 C4.40328125 17.77939453 4.1815625 16.99628906 3.953125 16.18945312 C2.45187533 10.82469329 1.16692484 5.44746691 0 0 Z " fill="#FEFBFA" transform="translate(201,257)"/>
<path d="M0 0 C10.23 0 20.46 0 31 0 C31 3.3 31 6.6 31 10 C20.77 10 10.54 10 0 10 C0 6.7 0 3.4 0 0 Z " fill="#C05710" transform="translate(317,110)"/>
<path d="M0 0 C9.9 0 19.8 0 30 0 C30 3.3 30 6.6 30 10 C20.1 10 10.2 10 0 10 C0 6.7 0 3.4 0 0 Z " fill="#C15409" transform="translate(317,130)"/>
<path d="M0 0 C9.9 0 19.8 0 30 0 C30 3.3 30 6.6 30 10 C20.1 10 10.2 10 0 10 C0 6.7 0 3.4 0 0 Z " fill="#B94F06" transform="translate(317,89)"/>
<path d="M0 0 C3.95906817 1.43308135 7.28718181 3.33141949 10.8125 5.625 C11.78832031 6.25664062 12.76414063 6.88828125 13.76953125 7.5390625 C14.50558594 8.02117187 15.24164063 8.50328125 16 9 C14.68753462 12.44094186 13.33411133 15.13540882 11 18 C7.10993227 16.61219205 4.03441292 14.7847773 0.6875 12.375 C-0.19550781 11.74335938 -1.07851562 11.11171875 -1.98828125 10.4609375 C-2.65214844 9.97882813 -3.31601563 9.49671875 -4 9 C-3.23596585 5.52846619 -1.91813089 3.00229182 0 0 Z " fill="#C95D11" transform="translate(216,157)"/>
<path d="M0 0 C4.07453229 0.62304741 6.89539701 2.76532621 10.25 5.0625 C11.32765625 5.79597656 12.4053125 6.52945313 13.515625 7.28515625 C14.33546875 7.85105469 15.1553125 8.41695312 16 9 C14.56375905 13.30872286 13.45397435 14.54602565 10 18 C5.38 15.03 0.76 12.06 -4 9 C-3.08541782 5.34167128 -1.99523834 3.12298174 0 0 Z " fill="#C75C11" transform="translate(149,147)"/>
<path d="M0 0 C4.55700425 0.52484692 7.192874 2.31507303 10.8125 5.0625 C11.78832031 5.79597656 12.76414063 6.52945313 13.76953125 7.28515625 C14.50558594 7.85105469 15.24164063 8.41695312 16 9 C14.56375905 13.30872286 13.45397435 14.54602565 10 18 C5.38 14.7 0.76 11.4 -4 8 C-2 3 -2 3 0 0 Z " fill="#C75C11" transform="translate(231,147)"/>
<path d="M0 0 C3.95906817 1.43308135 7.28718181 3.33141949 10.8125 5.625 C11.78832031 6.25664062 12.76414063 6.88828125 13.76953125 7.5390625 C14.50558594 8.02117187 15.24164063 8.50328125 16 9 C14.68753462 12.44094186 13.33411133 15.13540882 11 18 C7.10993227 16.61219205 4.03441292 14.7847773 0.6875 12.375 C-0.19550781 11.74335938 -1.07851562 11.11171875 -1.98828125 10.4609375 C-2.65214844 9.97882813 -3.31601563 9.49671875 -4 9 C-3.23596585 5.52846619 -1.91813089 3.00229182 0 0 Z " fill="#C85C10" transform="translate(134,157)"/>
<path d="M0 0 C2.99558059 2.99558059 5.662865 5.7224342 8.3125 8.9375 C11.36904107 12.4922438 14.65703899 15.19759641 18.49609375 17.87109375 C18.99238281 18.24363281 19.48867187 18.61617188 20 19 C20 19.33 20 19.66 20 20 C13.4 20 6.8 20 0 20 C0 13.4 0 6.8 0 0 Z " fill="#FEFBFA" transform="translate(163,305)"/>
<path d="M0 0 C5.43103592 1.08620718 6.81096977 1.62647282 10 6 C10.71333476 9.1500863 10.71333476 11.8499137 10 15 C6.81096977 19.37352718 5.43103592 19.91379282 0 21 C0 14.07 0 7.14 0 0 Z " fill="#FAF2ED" transform="translate(265,140)"/>
<path d="M0 0 C0 6.6 0 13.2 0 20 C-6.31736527 18.73652695 -6.31736527 18.73652695 -9 15 C-9.90473341 12.28000019 -10.24699033 9.85959913 -10 7 C-7.23147239 1.74934419 -6.00002409 0 0 0 Z " fill="#FDF9F7" transform="translate(111,141)"/>
<path d="M0 0 C2.83077371 2.83077371 3.22708446 6.15627788 4.125 9.9375 C4.30675781 10.66646484 4.48851562 11.39542969 4.67578125 12.14648438 C5.41168435 15.16479369 6 17.88224375 6 21 C2.04 21 -1.92 21 -6 21 C-5.34065816 16.13451192 -4.03428754 11.74092364 -2.4375 7.125 C-2.20353516 6.43664062 -1.96957031 5.74828125 -1.72851562 5.0390625 C-1.15647501 3.35796355 -0.57881544 1.67877837 0 0 Z " fill="#FBF3ED" transform="translate(373,217)"/>
<path d="M0 0 C7.71484375 -0.09765625 7.71484375 -0.09765625 10 0 C11 1 11 1 11.09765625 3.28515625 C11.04882812 7.14257812 11.04882812 7.14257812 11 11 C7.37 11 3.74 11 0 11 C0 7.37 0 3.74 0 0 Z " fill="#C56725" transform="translate(378,109)"/>
<path d="M0 0 C3.63 0 7.26 0 11 0 C11 3.3 11 6.6 11 10 C7.37 10 3.74 10 0 10 C0 6.7 0 3.4 0 0 Z " fill="#C56019" transform="translate(378,130)"/>
<path d="M0 0 C3.63 0 7.26 0 11 0 C11 3.3 11 6.6 11 10 C7.37 10 3.74 10 0 10 C0 6.7 0 3.4 0 0 Z " fill="#BE5B17" transform="translate(378,89)"/>
<path d="M0 0 C5.41055874 1.08211175 6.61871299 1.86731588 10 6 C10.33 7.65 10.66 9.3 11 11 C7.37 11 3.74 11 0 11 C0 7.37 0 3.74 0 0 Z " fill="#FAEADE" transform="translate(265,294)"/>
</svg>
